<svg width="24" height="29" viewBox="0 0 24 29" fill="none" xmlns="http://www.w3.org/2000/svg">
<g filter="url(#filter0_d)">
<path d="M19 20.5863H5C4.44772 20.5863 4 20.1386 4 19.5863V9.94329C4.01549 9.69823 4.11964 9.46718 4.293 9.29329L11.293 2.29329C11.4806 2.10551 11.7351 2 12.0005 2C12.2659 2 12.5204 2.10551 12.708 2.29329L19.708 9.29329C19.8957 9.48057 20.0009 9.73511 20 10.0003V19.5863C20 20.1386 19.5523 20.5863 19 20.5863ZM11.378 16.0613C11.598 16.2413 11.811 16.4173 12 16.5863C12.2 16.4093 12.424 16.2263 12.662 16.0323L12.719 15.9853C13.885 15.0343 15.337 13.8513 15.337 12.3853C15.3368 11.9016 15.142 11.4383 14.7964 11.0999C14.4508 10.7614 13.9836 10.5763 13.5 10.5863C12.9278 10.5847 12.3821 10.8274 12 11.2533C11.6179 10.8273 11.0722 10.5846 10.5 10.5863C10.0166 10.5769 9.5497 10.7624 9.20452 11.101C8.85935 11.4395 8.66491 11.9028 8.665 12.3863C8.665 13.8473 10.105 15.0223 11.265 15.9663H11.264H11.269L11.287 15.9813H11.292L11.3 16.0003L11.352 16.0433L11.365 16.0533H11.371L11.378 16.0613Z" fill="#2E3A59"/>
</g>
<defs>
<filter id="filter0_d" x="-4" y="0" width="32" height="32" filterUnits="userSpaceOnUse" color-interpolation-filters="sRGB">
<feFlood flood-opacity="0" result="BackgroundImageFix"/>
<feColorMatrix in="SourceAlpha" type="matrix" values="0 0 0 0 0 0 0 0 0 0 0 0 0 0 0 0 0 0 127 0"/>
<feOffset dy="4"/>
<feGaussianBlur stdDeviation="2"/>
<feColorMatrix type="matrix" values="0 0 0 0 0 0 0 0 0 0 0 0 0 0 0 0 0 0 0.25 0"/>
<feBlend mode="normal" in2="BackgroundImageFix" result="effect1_dropShadow"/>
<feBlend mode="normal" in="SourceGraphic" in2="effect1_dropShadow" result="shape"/>
</filter>
</defs>
</svg>
